<svg version="1.1" xmlns="http://www.w3.org/2000/svg" xmlns:xlink="http://www.w3.org/1999/xlink" width="25.5" height="25.5" viewBox="0,0,25.5,25.5"><g transform="translate(-227.25,-167.25)"><g data-paper-data="{&quot;isPaintingLayer&quot;:true}" fill-rule="nonzero" stroke-linecap="butt" stroke-linejoin="miter" stroke-miterlimit="10" stroke-dasharray="" stroke-dashoffset="0" style="mix-blend-mode: normal"><path d="M229,191v-22h22v22z" fill="#ff0000" stroke="#1100ff" stroke-width="3.5"/><path d="M240.00811,180.43742c-2.55388,0.04736 -4.62784,-0.1101 -4.63232,-0.35168c-0.00448,-0.24158 2.06221,-0.47582 4.61609,-0.52317c2.55388,-0.04736 4.62784,0.1101 4.63232,0.35168c0.00448,0.24158 -2.06221,0.47582 -4.61609,0.52317z" fill="#00f3ff" stroke="#1100ff" stroke-width="0"/><path d="M239.56257,180.00811c-0.04735,-2.55388 0.1101,-4.62783 0.35168,-4.63231c0.24158,-0.00448 0.47582,2.06222 0.52317,4.61609c0.04736,2.55388 -0.11009,4.62784 -0.35168,4.63232c-0.24158,0.00448 -0.47582,-2.06222 -0.52317,-4.6161z" fill="#00f3ff" stroke="#1100ff" stroke-width="0"/></g></g></svg>