<svg version="1.1" xmlns="http://www.w3.org/2000/svg" xmlns:xlink="http://www.w3.org/1999/xlink" width="25.5" height="25.5" viewBox="0,0,25.5,25.5"><g transform="translate(-227.25,-167.25)"><g data-paper-data="{&quot;isPaintingLayer&quot;:true}" fill-rule="nonzero" stroke-linecap="butt" stroke-linejoin="miter" stroke-miterlimit="10" stroke-dasharray="" stroke-dashoffset="0" style="mix-blend-mode: normal"><path d="M229,191v-22h22v22z" fill="#ff0000" stroke="#1100ff" stroke-width="3.5"/><path d="M235.1875,178.0625c0,2.55432 -0.19588,4.625 -0.4375,4.625c-0.24162,0 -0.4375,-2.07068 -0.4375,-4.625c0,-2.55432 0.19588,-4.625 0.4375,-4.625c0.24162,0 0.4375,2.07068 0.4375,4.625z" fill="#00f3ff" stroke="#1100ff" stroke-width="0"/><path d="M245.53339,178.02502c0,2.55432 -0.19588,4.625 -0.4375,4.625c-0.24162,0 -0.4375,-2.07068 -0.4375,-4.625c0,-2.55432 0.19588,-4.625 0.4375,-4.625c0.24162,0 0.4375,2.07068 0.4375,4.625z" fill="#00f3ff" stroke="#1100ff" stroke-width="0"/></g></g></svg>