<svg version="1.1" xmlns="http://www.w3.org/2000/svg" xmlns:xlink="http://www.w3.org/1999/xlink" width="367.5" height="216.50713" viewBox="0,0,367.5,216.50713"><g transform="translate(24.75,-126.74644)"><g data-paper-data="{&quot;isPaintingLayer&quot;:true}" fill-rule="nonzero" stroke-linejoin="miter" stroke-miterlimit="10" stroke-dasharray="" stroke-dashoffset="0" style="mix-blend-mode: normal"><path d="M-18,336.50357v-203.00713h354v203.00713z" fill="none" stroke="#000000" stroke-width="13.5" stroke-linecap="butt"/><path d="M-18.62857,217.00921v-24.20513h59v24.20513z" fill="#ff0000" stroke="none" stroke-width="0" stroke-linecap="butt"/><path d="M32.91798,184.47167v-24.20513h59v24.20513z" fill="#ff0000" stroke="none" stroke-width="0" stroke-linecap="butt"/><path d="M32.16598,158.44125h58l56.92361,56.92361l66.62508,66.62508h-34.54095" fill="none" stroke="#000000" stroke-width="6" stroke-linecap="round"/><path d="M176.97372,282.6h87" fill="none" stroke="#000000" stroke-width="6" stroke-linecap="round"/><path d="M147.87143,322c0,-2.20914 2.01472,-4 4.5,-4c2.48528,0 4.5,1.79086 4.5,4c0,2.20914 -2.01472,4 -4.5,4c-2.48528,0 -4.5,-1.79086 -4.5,-4z" fill="#1000ff" stroke="none" stroke-width="0" stroke-linecap="butt"/><path d="M111.87143,316.5c0,1.38071 -0.89543,2.5 -2,2.5c-1.10457,0 -2,-1.11929 -2,-2.5c0,-1.38071 0.89543,-2.5 2,-2.5c1.10457,0 2,1.11929 2,2.5z" fill="#1000ff" stroke="none" stroke-width="0" stroke-linecap="butt"/><path d="M128.46257,326.92902c0,-0.32217 -0.48502,-0.58333 -1.08333,-0.58333c-0.59831,0 -1.08333,0.26117 -1.08333,0.58333c0,0.32217 0.48502,0.58333 1.08333,0.58333c0.59831,0 1.08333,-0.26117 1.08333,-0.58333z" fill="#1000ff" stroke="none" stroke-width="0" stroke-linecap="butt"/><path d="M135.62924,327.09569c0,0.23012 -0.29848,0.41667 -0.66667,0.41667c-0.36819,0 -0.66667,-0.18655 -0.66667,-0.41667c0,-0.23012 0.29848,-0.41667 0.66667,-0.41667c0.36819,0 0.66667,0.18655 0.66667,0.41667z" fill="#1000ff" stroke="none" stroke-width="0" stroke-linecap="butt"/><path d="M92.29591,335.01236l-1.16667,-5.66667" fill="none" stroke="#000000" stroke-width="5" stroke-linecap="round"/><path d="M105.29591,323.34569l-1.33333,-3.16667" fill="none" stroke="#000000" stroke-width="0.5" stroke-linecap="round"/></g></g></svg>