<svg version="1.1" xmlns="http://www.w3.org/2000/svg" xmlns:xlink="http://www.w3.org/1999/xlink" width="367.5" height="216.50713" viewBox="0,0,367.5,216.50713"><g transform="translate(24.75,-126.74644)"><g data-paper-data="{&quot;isPaintingLayer&quot;:true}" fill-rule="nonzero" stroke-linecap="butt" stroke-linejoin="miter" stroke-miterlimit="10" stroke-dasharray="" stroke-dashoffset="0" style="mix-blend-mode: normal"><path d="M-18,336.50357v-203.00713h354v203.00713z" fill="none" stroke="#000000" stroke-width="13.5"/><path d="M1,164.57811c0,-9.1127 7.3873,-16.5 16.5,-16.5c9.1127,0 16.5,7.3873 16.5,16.5c0,9.1127 -7.3873,16.5 -16.5,16.5c-9.1127,0 -16.5,-7.3873 -16.5,-16.5z" fill="#1000ff" stroke="#000000" stroke-width="0"/><path d="M98.5,194.07811v-37h37v37z" fill="none" stroke="#000000" stroke-width="6"/><path d="M14.5,297.07811v-37h37v37z" fill="none" stroke="#000000" stroke-width="6"/><path d="M82.5,308.07811v-12h12v12z" fill="none" stroke="#000000" stroke-width="6"/><path d="M122.5,319.07811v-14h35v14z" fill="none" stroke="#000000" stroke-width="6"/><path d="M191.5,294.07811v-4h49v4z" fill="none" stroke="#000000" stroke-width="6"/><path d="M210.5,255.07811v-12h63v12z" fill="none" stroke="#000000" stroke-width="6"/><path d="M172.5,192.07811v-36h30v36z" fill="none" stroke="#000000" stroke-width="6"/><path d="M273.37143,331.00921v-24.20513h59v24.20513z" fill="#ff0000" stroke="none" stroke-width="0"/><path d="M273.37143,163.00921v-24.20513h59v24.20513z" fill="#ff0000" stroke="none" stroke-width="0"/></g></g></svg>