<svg version="1.1" xmlns="http://www.w3.org/2000/svg" xmlns:xlink="http://www.w3.org/1999/xlink" width="367.5" height="216.50713" viewBox="0,0,367.5,216.50713"><g transform="translate(24.75,-126.74644)"><g data-paper-data="{&quot;isPaintingLayer&quot;:true}" fill-rule="nonzero" stroke-linecap="butt" stroke-linejoin="miter" stroke-miterlimit="10" stroke-dasharray="" stroke-dashoffset="0" style="mix-blend-mode: normal"><path d="M-18,336.50357v-203.00713h354v203.00713z" fill="none" stroke="#000000" stroke-width="13.5"/><path d="M213.05064,280.12021v-16.45615h52v16.46941" fill="none" stroke="#000000" stroke-width="13.5"/><path d="M265.05064,300.09022v16.82384h-52v-16.81059" fill="none" stroke="#000000" stroke-width="13.5"/><path d="M90.53069,275.3697v-10.89823h72.5v18.5348l49.80227,21.74652" fill="none" stroke="#000000" stroke-width="5.5"/><path d="M163.03069,302.99816v13.97332h-72.5v-2.98347l-57.72337,15.72632" fill="none" stroke="#000000" stroke-width="5.5"/><path d="M283.10426,167.19427c0,-11.85574 9.61098,-21.46672 21.46672,-21.46672c11.85574,0 21.46672,9.61098 21.46672,21.46672c0,11.85574 -9.61098,21.46672 -21.46672,21.46672c-11.85574,0 -21.46672,-9.61098 -21.46672,-21.46672z" fill="#1000ff" stroke="none" stroke-width="0"/><path d="M97.1022,210.95792v-77.91026h42.35897v77.91026z" fill="#ff0000" stroke="none" stroke-width="0"/><path d="M-18.62857,217.0092v-24.20513h59v24.20513z" fill="#ff0000" stroke="none" stroke-width="0"/></g></g></svg>